name C:\Users\Nicos\Desktop\Gil_twoSteps\Study2\ExperimentalData\IK_Splined\twoSteps_IK_BSplines_100_meshInts_study2_p02_s_01_lowIK_modROI.mot
datacolumns 38
datarows 10
range 0.43700000 0.44639602
endheader
                time	         pelvis_tilt	         pelvis_list	     pelvis_rotation	           pelvis_tx	           pelvis_ty	           pelvis_tz	       hip_flexion_r	     hip_adduction_r	      hip_rotation_r	        knee_angle_r	       ankle_angle_r	    subtalar_angle_r	         mtp_angle_r	       hip_flexion_l	     hip_adduction_l	      hip_rotation_l	        knee_angle_l	       ankle_angle_l	    subtalar_angle_l	         mtp_angle_l	    lumbar_extension	      lumbar_bending	     lumbar_rotation	          arm_flex_r	           arm_add_r	           arm_rot_r	        elbow_flex_r	           pro_sup_r	        wrist_flex_r	         wrist_dev_r	          arm_flex_l	           arm_add_l	           arm_rot_l	        elbow_flex_l	           pro_sup_l	        wrist_flex_l	         wrist_dev_l	
          0.43700000	        -21.48557807	          1.41459745	        -11.35120098	         -0.86222923	          0.85364679	          0.34100106	         25.49637799	          1.60600143	         10.77380128	        -56.87431530	         18.80827587	        -16.00725598	         12.56252756	         53.39019923	         -3.62553473	        -14.76978645	       -110.54323501	         -5.97261902	        -14.43902963	         10.16968821	        -25.62028499	         -3.43001522	         -6.77088839	         32.72625920	          1.25603434	          9.82853445	         81.59033441	         71.96132324	         -5.50000555	         10.71035002	        -43.71024054	         -9.82293301	        -16.99983491	         37.25502498	         71.16103263	        -10.39164669	         19.42402718	
          0.43767602	        -21.45580648	          1.51632006	        -11.44230577	         -0.85925237	          0.85356356	          0.34117877	         25.21639755	          1.45126608	         10.82917003	        -56.69165097	         18.73127046	        -15.93823789	         12.72027632	         53.85583485	         -3.56946952	        -14.72646581	       -110.73057876	         -5.80799297	        -14.45930721	         10.15582200	        -25.57628151	         -3.62604075	         -6.77475561	         33.31935796	          1.45658245	          9.94391433	         81.82659433	         71.94565950	         -5.51853493	         10.71634555	        -44.26896391	         -9.74943423	        -17.06918544	         37.39469749	         71.45058597	        -10.32439357	         19.51992690	
          0.43981198	        -21.37315528	          1.84795329	        -11.70707397	         -0.84979798	          0.85326582	          0.34170506	         24.33210527	          0.93192053	         10.98532998	        -56.08525855	         18.48673759	        -15.69421932	         13.23185472	         55.33982788	         -3.37377033	        -14.57957760	       -111.28309791	         -5.31253766	        -14.55469354	         10.08026982	        -25.41309542	         -4.24702547	         -6.76910782	         35.15455479	          2.04433387	         10.30084501	         82.61629798	         71.89796045	         -5.57942814	         10.73370315	        -46.03584986	         -9.52069575	        -17.28817664	         37.88788518	         72.35817459	        -10.10452392	         19.81039046	
          0.44136000	        -21.32699236	          2.10061642	        -11.87117903	         -0.84288733	          0.85300818	          0.34204410	         23.69161808	          0.51888616	         11.07590063	        -55.61057837	         18.30803666	        -15.48613706	         13.61845297	         56.43071869	         -3.20960570	        -14.46107065	       -111.63610158	         -4.98318106	        -14.66151568	          9.98731309	        -25.26575829	         -4.69903558	         -6.74351161	         36.43796384	          2.41506336	         10.55035463	         83.24064654	         71.86554750	         -5.62638598	         10.74437438	        -47.31825469	         -9.35911619	        -17.44673511	         38.30775884	         73.00718102	         -9.93629578	         20.00580973	
          0.44136000	        -21.32699236	          2.10061642	        -11.87117903	         -0.84288733	          0.85300818	          0.34204410	         23.69161808	          0.51888616	         11.07590063	        -55.61057837	         18.30803666	        -15.48613706	         13.61845297	         56.43071869	         -3.20960570	        -14.46107065	       -111.63610158	         -4.98318106	        -14.66151568	          9.98731309	        -25.26575829	         -4.69903558	         -6.74351161	         36.43796384	          2.41506336	         10.55035463	         83.24064654	         71.86554750	         -5.62638598	         10.74437438	        -47.31825469	         -9.35911619	        -17.44673511	         38.30775884	         73.00718102	         -9.93629578	         20.00580973	
          0.44203602	        -21.30683298	          2.21095458	        -11.94284383	         -0.83986944	          0.85289568	          0.34219216	         23.41191689	          0.33851376	         11.11545290	        -55.40328521	         18.22999785	        -15.39526740	         13.78728069	         56.90711145	         -3.13791489	        -14.40931858	       -111.79025853	         -4.83935080	        -14.70816498	          9.94671882	        -25.20141607	         -4.89642870	         -6.73233373	         36.99842945	          2.57696118	         10.65931565	         83.51329998	         71.85139274	         -5.64689251	         10.74903452	        -47.87828175	         -9.28855428	        -17.51597770	         38.49111796	         73.29060257	         -9.86283044	         20.09114946	
          0.44417198	        -21.25217431	          2.56915991	        -12.14793479	         -0.83027609	          0.85250975	          0.34262557	         22.52497666	         -0.25823586	         11.22247265	        -54.71819485	         17.97537170	        -15.08494318	         14.33648761	         58.41763834	         -2.89582208	        -14.24087309	       -112.23724313	         -4.40404353	        -14.87634614	          9.80406145	        -24.97846417	         -5.52223353	         -6.68304320	         38.73922559	          3.03324046	         11.01437439	         84.41315617	         71.79158595	         -5.71781002	         10.76144647	        -49.64692748	         -9.06646960	        -17.75602892	         39.11182336	         74.15299547	         -9.62236423	         20.34886088	
          0.44572000	        -21.22358934	          2.84046118	        -12.27052900	         -0.82325251	          0.85219290	          0.34289769	         21.87826760	         -0.72349109	         11.27812903	        -54.18490956	         17.78100180	        -14.83170744	         14.75378101	         59.51887787	         -2.70135348	        -14.11277632	       -112.51226821	         -4.11191277	        -15.02360519	          9.68310204	        -24.79289145	         -5.97837347	         -6.63026723	         39.96418942	          3.29649614	         11.28486533	         85.11216525	         71.72983302	         -5.77668253	         10.76762016	        -50.92775440	         -8.90656702	        -17.95596670	         39.61215966	         74.73761010	         -9.43790231	         20.52107960	
          0.44572000	        -21.22358934	          2.84046118	        -12.27052900	         -0.82325251	          0.85219290	          0.34289769	         21.87826760	         -0.72349109	         11.27812903	        -54.18490956	         17.78100180	        -14.83170744	         14.75378101	         59.51887787	         -2.70135348	        -14.11277632	       -112.51226821	         -4.11191277	        -15.02360519	          9.68310204	        -24.79289145	         -5.97837347	         -6.63026723	         39.96418942	          3.29649614	         11.28486533	         85.11216525	         71.72983302	         -5.77668253	         10.76762016	        -50.92775440	         -8.90656702	        -17.95596670	         39.61215966	         74.73761010	         -9.43790231	         20.52107960	
          0.44639602	        -21.21110627	          2.95893863	        -12.32406597	         -0.82018531	          0.85205454	          0.34301652	         21.59584931	         -0.92666837	         11.30243422	        -53.95202351	         17.69612033	        -14.72111922	         14.93601333	         59.99978993	         -2.61642892	        -14.05683638	       -112.63237184	         -3.98433906	        -15.08791332	          9.63027898	        -24.71185172	         -6.17757010	         -6.60721992	         40.49913196	          3.41146008	         11.40298891	         85.41742300	         71.70286547	         -5.80239220	         10.77031621	        -51.48709239	         -8.83673746	        -18.04327966	         39.83065687	         74.99291170	         -9.35734767	         20.59628764	
